<svg width="1600" height="1000" viewBox="0 0 1600 1000" fill="none" xmlns="http://www.w3.org/2000/svg">
  <defs>
    <linearGradient id="bg" x1="0" y1="0" x2="1600" y2="1000" gradientUnits="userSpaceOnUse">
      <stop stop-color="#143059"/>
      <stop offset="1" stop-color="#264D89"/>
    </linearGradient>
    <linearGradient id="panel" x1="0" y1="0" x2="520" y2="220" gradientUnits="userSpaceOnUse">
      <stop stop-color="#FFFFFF" stop-opacity="0.28"/>
      <stop offset="1" stop-color="#FFFFFF" stop-opacity="0.1"/>
    </linearGradient>
  </defs>
  <rect width="1600" height="1000" fill="url(#bg)"/>
  <path d="M0 760C220 640 420 640 620 760C830 885 1030 885 1230 760C1360 680 1485 660 1600 680V1000H0V760Z" fill="#FFFFFF" fill-opacity="0.08"/>
  <rect x="120" y="150" width="1360" height="700" rx="44" fill="#FFFFFF" fill-opacity="0.09" stroke="#FFFFFF" stroke-opacity="0.18"/>
  <rect x="220" y="260" width="1160" height="140" rx="28" fill="url(#panel)" stroke="#FFFFFF" stroke-opacity="0.2"/>
  <rect x="220" y="440" width="560" height="320" rx="28" fill="url(#panel)" stroke="#FFFFFF" stroke-opacity="0.2"/>
  <rect x="820" y="440" width="560" height="140" rx="24" fill="url(#panel)" stroke="#FFFFFF" stroke-opacity="0.2"/>
  <rect x="820" y="620" width="560" height="140" rx="24" fill="url(#panel)" stroke="#FFFFFF" stroke-opacity="0.2"/>
  <text x="220" y="120" fill="#FFD4A3" font-family="Arial, sans-serif" font-size="38" font-weight="700" letter-spacing="6">
    DEMO IMAGE
  </text>
  <text x="220" y="205" fill="#FFFFFF" font-family="Arial, sans-serif" font-size="76" font-weight="700">
    Нейтральный сервис
  </text>
</svg>
